# Blender 4.1.1
# www.blender.org
o Plane
v -0.000000 3.300000 1.600000
v 0.000000 -3.300000 1.600000
v -0.000000 3.300000 -1.600000
v 0.000000 -3.300000 -1.600000
v -0.000000 3.300001 -1.143806
v -0.000000 3.300001 1.143806
v 0.000000 -3.300001 1.143806
v 0.000000 -3.300001 -1.143806
v -0.000000 2.728068 1.600000
v 0.000000 -2.891456 1.600000
v 0.000000 -2.891456 -1.600000
v -0.000000 2.728068 -1.600000
v 0.000000 -2.891457 1.143806
v -0.000000 2.728068 1.143806
v 0.000000 -2.891457 -1.143806
v -0.000000 2.728068 -1.143806
v -0.175000 3.300000 1.600000
v -0.175000 -3.300001 1.600000
v -0.175000 3.300000 -1.600000
v -0.175000 -3.300001 -1.600000
v -0.175000 3.300000 -1.143806
v -0.175000 3.300000 1.143806
v -0.175000 -3.300001 1.143806
v -0.175000 -3.300001 -1.143806
v -0.175000 2.728068 1.600000
v -0.175000 -2.891457 1.600000
v -0.175000 -2.891457 -1.600000
v -0.175000 2.728068 -1.600000
v -0.175000 -2.891457 1.143806
v -0.175000 2.728068 1.143806
v -0.175000 -2.891457 -1.143806
v -0.175000 2.728068 -1.143806
vn 1.0000 -0.0000 -0.0000
vn -1.0000 -0.0000 -0.0000
vn -0.0000 1.0000 -0.0000
vn -0.0000 -0.0000 1.0000
vn -0.0000 -1.0000 -0.0000
vn -0.0000 -0.0000 -1.0000
vt 0.770945 0.202813
vt 0.769073 0.176014
vt 0.835586 0.176014
vt 0.837874 0.202813
vt 0.257559 0.196174
vt 0.260263 0.168569
vt 0.326117 0.169562
vt 0.325116 0.196174
vt 0.325812 0.196128
vt 0.326956 0.169538
vt 0.768600 0.176007
vt 0.770416 0.202790
vt 0.300450 0.816947
vt 0.301795 0.776956
vt 0.811859 0.774736
vt 0.816210 0.815681
vt 0.219324 0.816929
vt 0.220634 0.775406
vt 0.300694 0.775406
vt 0.299383 0.816929
vt 0.220549 0.775025
vt 0.257395 0.196395
vt 0.325034 0.196395
vt 0.300909 0.775025
vt 0.816683 0.815677
vt 0.813251 0.773236
vt 0.884531 0.773236
vt 0.887963 0.815677
vt 0.813172 0.772953
vt 0.771125 0.203081
vt 0.838213 0.203081
vt 0.884453 0.772953
vt 0.030950 0.702876
vt 0.030950 0.736607
vt 0.000000 0.736607
vt 0.000000 0.702876
vt 0.030950 0.500000
vt 0.030950 0.533731
vt 0.000000 0.533731
vt 0.000000 0.500000
vt 0.500000 0.533731
vt 0.500000 0.702876
vt 0.456672 0.702876
vt 0.456672 0.533731
vt 0.500000 0.500000
vt 0.456672 0.500000
vt 0.500000 0.736607
vt 0.456672 0.736607
vt 0.500000 0.599290
vt 0.500000 0.583329
vt 0.632075 0.583329
vt 0.632075 0.599291
vt 0.500000 0.375359
vt 0.500000 0.368428
vt 0.632076 0.368428
vt 0.632075 0.375359
vt 0.500000 0.711256
vt 0.500000 0.695294
vt 0.632075 0.695294
vt 0.632075 0.711256
vt 0.632076 0.385061
vt 0.500000 0.385061
vt 0.500000 0.375359
vt 0.500000 0.503287
vt 0.500000 0.487325
vt 0.632076 0.487325
vt 0.632076 0.503287
vt 0.500000 0.615252
vt 0.500000 0.599291
vt 0.632076 0.599291
vt 0.632076 0.615252
vt 0.500000 0.273095
vt 0.500000 0.263393
vt 0.632076 0.263393
vt 0.632076 0.273095
vt 0.632075 0.480394
vt 0.632076 0.487325
vt 0.500000 0.487325
vt 0.500000 0.480394
vt 0.764151 0.263393
vt 0.764151 0.358725
vt 0.632075 0.358725
vt 0.632075 0.263393
vt 0.632076 0.454058
vt 0.632076 0.358725
vt 0.764151 0.358725
vt 0.764151 0.454058
vt 0.632076 0.534100
vt 0.632076 0.454058
vt 0.764151 0.534100
vt 0.632076 0.614142
vt 0.632076 0.534100
vt 0.764151 0.534100
vt 0.764151 0.614142
s 0
f 15/1/1 8/2/1 4/3/1 11/4/1
f 10/5/1 2/6/1 7/7/1 13/8/1
f 13/9/1 7/10/1 8/11/1 15/12/1
f 6/13/1 14/14/1 16/15/1 5/16/1
f 1/17/1 9/18/1 14/19/1 6/20/1
f 9/21/1 10/22/1 13/23/1 14/24/1
f 5/25/1 16/26/1 12/27/1 3/28/1
f 16/29/1 15/30/1 11/31/1 12/32/1
f 31/33/2 27/34/2 20/35/2 24/36/2
f 26/37/2 29/38/2 23/39/2 18/40/2
f 29/38/2 31/33/2 24/36/2 23/39/2
f 22/41/2 21/42/2 32/43/2 30/44/2
f 17/45/2 22/41/2 30/44/2 25/46/2
f 25/46/2 30/44/2 29/38/2 26/37/2
f 21/42/2 19/47/2 28/48/2 32/43/2
f 32/43/2 28/48/2 27/34/2 31/33/2
f 1/49/3 6/50/3 22/51/3 17/52/3
f 2/53/4 10/54/4 26/55/4 18/56/4
f 4/57/5 8/58/5 24/59/5 20/60/5
f 3/56/6 12/61/6 28/62/6 19/63/6
f 5/64/3 3/65/3 19/66/3 21/67/3
f 6/50/3 5/64/3 21/67/3 22/51/3
f 7/68/5 2/69/5 18/70/5 23/71/5
f 8/58/5 7/68/5 23/71/5 24/59/5
f 9/72/4 1/73/4 17/74/4 25/75/4
f 10/54/4 9/72/4 25/75/4 26/55/4
f 11/76/6 4/77/6 20/78/6 27/79/6
f 12/61/6 11/76/6 27/79/6 28/62/6
f 14/80/6 13/81/6 29/82/6 30/83/6
f 15/84/4 16/85/4 32/86/4 31/87/4
f 16/88/5 14/89/5 30/87/5 32/90/5
f 13/91/3 15/92/3 31/93/3 29/94/3
