# Blender 3.6.4
# www.blender.org
mtllib Papperskorg.mtl
o Cylinder
v 0.000000 -1.000000 -1.000000
v 0.000000 -0.778234 -0.871997
v -0.000000 2.303394 -1.440012
v 0.500000 -1.000000 -0.866025
v 0.435998 -0.778234 -0.755171
v 0.720006 2.303394 -1.247087
v 0.866025 -1.000000 -0.500000
v 0.755171 -0.778234 -0.435998
v 1.247087 2.303394 -0.720006
v 1.000000 -1.000000 0.000000
v 0.871997 -0.778234 0.000000
v 1.440012 2.303394 -0.000000
v 0.866025 -1.000000 0.500000
v 0.755171 -0.778234 0.435998
v 1.247087 2.303394 0.720006
v 0.500000 -1.000000 0.866025
v 0.435998 -0.778234 0.755171
v 0.720006 2.303394 1.247087
v 0.000000 -1.000000 1.000000
v 0.000000 -0.778234 0.871997
v -0.000000 2.303394 1.440012
v -0.500000 -1.000000 0.866025
v -0.435998 -0.778234 0.755171
v -0.720006 2.303394 1.247087
v -0.866025 -1.000000 0.500000
v -0.755171 -0.778234 0.435998
v -1.247087 2.303394 0.720006
v -1.000000 -1.000000 0.000000
v -0.871997 -0.778234 0.000000
v -1.440012 2.303394 -0.000000
v -0.866025 -1.000000 -0.500000
v -0.755171 -0.778234 -0.435998
v -1.247087 2.303394 -0.720006
v -0.500000 -1.000000 -0.866025
v -0.435998 -0.778234 -0.755171
v -0.720006 2.303394 -1.247087
v -0.585367 2.303394 -1.013886
v -0.000000 2.303394 -1.170734
v 0.585367 2.303394 -1.013886
v -1.170734 2.303394 -0.000000
v -0.585367 2.303394 1.013886
v -1.013886 2.303394 0.585367
v 0.585367 2.303394 1.013886
v 1.170734 2.303394 -0.000000
v 1.013886 2.303394 0.585367
v -1.013886 2.303394 -0.585367
v 1.013886 2.303394 -0.585367
v -0.000000 2.303394 1.170734
vn 0.2567 -0.1276 -0.9580
vn 0.7013 -0.1276 -0.7013
vn 0.9580 -0.1276 -0.2567
vn 0.9580 -0.1276 0.2567
vn 0.7013 -0.1276 0.7013
vn 0.2567 -0.1276 0.9580
vn -0.2567 -0.1276 0.9580
vn -0.7013 -0.1276 0.7013
vn -0.9580 -0.1276 0.2567
vn -0.9580 -0.1276 -0.2567
vn -0.0000 1.0000 -0.0000
vn -0.7013 -0.1276 -0.7013
vn -0.2567 -0.1276 -0.9580
vn -0.0000 -1.0000 -0.0000
vn -0.2577 0.0932 0.9617
vn -0.7040 0.0932 0.7040
vn -0.9617 0.0932 0.2577
vn -0.9617 0.0932 -0.2577
vn -0.7040 0.0932 -0.7040
vn -0.2577 0.0932 -0.9617
vn 0.2577 0.0932 -0.9617
vn 0.7040 0.0932 -0.7040
vn 0.9617 0.0932 -0.2577
vn 0.9617 0.0932 0.2577
vn 0.7040 0.0932 0.7040
vn 0.2577 0.0932 0.9617
vt 1.000000 0.500000
vt 1.000000 1.000000
vt 0.916667 1.000000
vt 0.916667 0.500000
vt 0.833333 1.000000
vt 0.833333 0.500000
vt 0.750000 1.000000
vt 0.750000 0.500000
vt 0.666667 1.000000
vt 0.666667 0.500000
vt 0.583333 1.000000
vt 0.583333 0.500000
vt 0.500000 1.000000
vt 0.500000 0.500000
vt 0.416667 1.000000
vt 0.416667 0.500000
vt 0.333333 1.000000
vt 0.333333 0.500000
vt 0.250000 1.000000
vt 0.250000 0.500000
vt 0.166667 1.000000
vt 0.166667 0.500000
vt 0.250000 0.445121
vt 0.250000 0.490000
vt 0.130000 0.457846
vt 0.042154 0.370000
vt 0.010000 0.250000
vt 0.042154 0.130000
vt 0.130000 0.042154
vt 0.250000 0.010000
vt 0.250000 0.054879
vt 0.152440 0.081020
vt 0.081020 0.152440
vt 0.054879 0.250000
vt 0.081020 0.347560
vt 0.152440 0.418980
vt 0.370000 0.042154
vt 0.457846 0.130000
vt 0.490000 0.250000
vt 0.457846 0.370000
vt 0.370000 0.457846
vt 0.347560 0.418980
vt 0.418980 0.347560
vt 0.445121 0.250000
vt 0.418980 0.152440
vt 0.347560 0.081020
vt 0.083333 1.000000
vt 0.083333 0.500000
vt 0.000000 1.000000
vt 0.000000 0.500000
vt 0.630000 0.457846
vt 0.750000 0.490000
vt 0.870000 0.457846
vt 0.957846 0.370000
vt 0.990000 0.250000
vt 0.957846 0.130000
vt 0.870000 0.042154
vt 0.750000 0.010000
vt 0.630000 0.042154
vt 0.542154 0.130000
vt 0.510000 0.250000
vt 0.542154 0.370000
vt 0.916667 0.877500
vt 1.000000 0.877500
vt 0.833333 0.877500
vt 0.750000 0.877500
vt 0.666667 0.877500
vt 0.583333 0.877500
vt 0.500000 0.877500
vt 0.416667 0.877500
vt 0.333333 0.877500
vt 0.250000 0.877500
vt 0.166667 0.877500
vt 0.083333 0.877500
vt 0.000000 0.877500
s 0
f 1/1/1 3/2/1 6/3/1 4/4/1
f 4/4/2 6/3/2 9/5/2 7/6/2
f 7/6/3 9/5/3 12/7/3 10/8/3
f 10/8/4 12/7/4 15/9/4 13/10/4
f 13/10/5 15/9/5 18/11/5 16/12/5
f 16/12/6 18/11/6 21/13/6 19/14/6
f 19/14/7 21/13/7 24/15/7 22/16/7
f 22/16/8 24/15/8 27/17/8 25/18/8
f 25/18/9 27/17/9 30/19/9 28/20/9
f 28/20/10 30/19/10 33/21/10 31/22/10
f 38/23/11 3/24/11 36/25/11 33/26/11 30/27/11 27/28/11 24/29/11 21/30/11 48/31/11 41/32/11 42/33/11 40/34/11 46/35/11 37/36/11
f 21/30/11 18/37/11 15/38/11 12/39/11 9/40/11 6/41/11 3/24/11 38/23/11 39/42/11 47/43/11 44/44/11 45/45/11 43/46/11 48/31/11
f 31/22/12 33/21/12 36/47/12 34/48/12
f 34/48/13 36/47/13 3/49/13 1/50/13
f 34/51/14 1/52/14 4/53/14 7/54/14 10/55/14 13/56/14 16/57/14 19/58/14 22/59/14 25/60/14 28/61/14 31/62/14
f 2/1/15 5/4/15 39/63/15 38/64/15
f 39/63/16 5/4/16 8/6/16 47/65/16
f 8/6/17 11/8/17 44/66/17 47/65/17
f 11/8/18 14/10/18 45/67/18 44/66/18
f 14/10/19 17/12/19 43/68/19 45/67/19
f 17/12/20 20/14/20 48/69/20 43/68/20
f 20/14/21 23/16/21 41/70/21 48/69/21
f 23/16/22 26/18/22 42/71/22 41/70/22
f 26/18/23 29/20/23 40/72/23 42/71/23
f 40/72/24 29/20/24 32/22/24 46/73/24
f 46/73/25 32/22/25 35/48/25 37/74/25
f 35/48/26 2/50/26 38/75/26 37/74/26
f 29/61/11 26/60/11 23/59/11 20/58/11 17/57/11 14/56/11 11/55/11 8/54/11 5/53/11 2/52/11 35/51/11 32/62/11
