# Blender 3.6.4
# www.blender.org
mtllib TrashBox.mtl
o Cube
v -1.000000 -1.500000 1.000000
v -0.885584 -1.328375 0.486515
v -1.000000 1.500000 1.000000
v -0.885584 1.328375 0.486515
v -1.000000 -1.500000 -1.000000
v -1.000000 1.500000 -1.000000
v 1.000000 -1.500000 1.000000
v 0.885584 -1.328375 0.486515
v 1.000000 1.500000 1.000000
v 0.885584 1.328375 0.486515
v 1.000000 -1.500000 -1.000000
v 1.000000 1.500000 -1.000000
v -0.885584 -1.328375 -1.000000
v 0.885584 1.328375 -1.000000
v -0.885584 1.328375 -1.000000
v 0.885584 -1.328375 -1.000000
v -0.476177 1.500000 0.000000
v -0.336708 1.500000 0.336708
v -0.439930 1.500000 0.182225
v -0.439930 1.500000 -0.182225
v -0.182225 1.500000 -0.439930
v 0.336708 1.500000 -0.336708
v 0.182225 1.500000 -0.439930
v 0.000000 1.500000 -0.476177
v -0.336708 1.500000 -0.336708
v -0.182225 1.500000 0.439930
v 0.182225 1.500000 0.439930
v 0.000000 1.500000 0.476177
v 0.476177 1.500000 0.000000
v 0.439930 1.500000 0.182225
v 0.439930 1.500000 -0.182225
v 0.336708 1.500000 0.336708
v -0.439930 1.328375 0.182225
v -0.476177 1.328375 0.000000
v -0.336708 1.328375 0.336708
v -0.439930 1.328375 -0.182225
v -0.336708 1.328375 -0.336708
v 0.000000 1.328375 0.476177
v 0.439930 1.328375 0.182225
v 0.182225 1.328375 0.439930
v 0.336708 1.328375 0.336708
v -0.182225 1.328375 0.439930
v -0.182225 1.328375 -0.439930
v 0.182225 1.328375 -0.439930
v 0.000000 1.328375 -0.476177
v 0.476177 1.328375 0.000000
v 0.439930 1.328375 -0.182225
v 0.336708 1.328375 -0.336708
vn -1.0000 -0.0000 -0.0000
vn -0.0000 -0.0000 -1.0000
vn 1.0000 -0.0000 -0.0000
vn -0.0000 -0.0000 1.0000
vn -0.0000 -1.0000 -0.0000
vn -0.0000 1.0000 -0.0000
vn -0.1951 -0.0000 0.9808
vn -0.5556 -0.0000 0.8315
vn -0.8315 -0.0000 0.5556
vn -0.9808 -0.0000 0.1951
vn -0.9808 -0.0000 -0.1951
vn -0.8315 -0.0000 -0.5556
vn -0.5556 -0.0000 -0.8315
vn -0.1951 -0.0000 -0.9808
vn 0.1951 -0.0000 -0.9808
vn 0.5556 -0.0000 -0.8315
vn 0.8315 -0.0000 -0.5556
vn 0.9808 -0.0000 -0.1951
vn 0.9808 -0.0000 0.1951
vn 0.8315 -0.0000 0.5556
vn 0.5556 -0.0000 0.8315
vn 0.1951 -0.0000 0.9808
vt 0.375000 0.000000
vt 0.625000 0.000000
vt 0.625000 0.250000
vt 0.375000 0.250000
vt 0.610698 0.485698
vt 0.610698 0.264302
vt 0.625000 0.500000
vt 0.375000 0.500000
vt 0.389302 0.485698
vt 0.389302 0.264302
vt 0.625000 0.750000
vt 0.375000 0.750000
vt 0.625000 1.000000
vt 0.375000 1.000000
vt 0.125000 0.500000
vt 0.125000 0.750000
vt 0.875000 0.500000
vt 0.875000 0.750000
vt 0.707911 0.667089
vt 0.727222 0.679991
vt 0.750000 0.684522
vt 0.772778 0.679991
vt 0.792089 0.667089
vt 0.804991 0.647778
vt 0.809522 0.625000
vt 0.804991 0.602222
vt 0.792089 0.582911
vt 0.772778 0.570009
vt 0.750000 0.565478
vt 0.727222 0.570009
vt 0.707911 0.582911
vt 0.695009 0.602222
vt 0.690478 0.625000
vt 0.695009 0.647778
vt 0.625000 0.209821
vt 0.375000 0.209821
vt 0.375000 0.540179
vt 0.625000 0.540179
vt 0.125000 0.540179
vt 0.812096 0.707050
vt 0.875000 0.540179
vt 0.687904 0.707049
vt 0.682788 0.681329
vt 0.687904 0.655608
vt 0.702474 0.633802
vt 0.724279 0.619232
vt 0.750000 0.614116
vt 0.775721 0.619232
vt 0.797526 0.633802
vt 0.812096 0.655608
vt 0.817212 0.681328
vt 0.797526 0.728855
vt 0.775721 0.743425
vt 0.750000 0.748541
vt 0.724279 0.743425
vt 0.702474 0.728855
vt 0.937500 0.760868
vt 0.937500 0.850973
vt 1.000000 0.850973
vt 1.000000 0.760868
vt 0.875000 0.760868
vt 0.875000 0.850973
vt 0.812500 0.850973
vt 0.812500 0.760868
vt 0.750000 0.850973
vt 0.750000 0.760868
vt 0.687500 0.850973
vt 0.687500 0.760868
vt 0.625000 0.850973
vt 0.625000 0.760868
vt 0.562500 0.850973
vt 0.562500 0.760868
vt 0.500000 0.850973
vt 0.500000 0.760868
vt 0.437500 0.850973
vt 0.437500 0.760868
vt 0.375000 0.850973
vt 0.375000 0.760868
vt 0.312500 0.760868
vt 0.312500 0.850973
vt 0.250000 0.760868
vt 0.250000 0.850973
vt 0.187500 0.760868
vt 0.187500 0.850973
vt 0.125000 0.760868
vt 0.125000 0.850973
vt 0.062500 0.760868
vt 0.062500 0.850973
vt 0.000000 0.760868
vt 0.000000 0.850973
s 0
f 1/1/1 3/2/1 6/3/1 5/4/1
f 14/5/2 15/6/2 6/3/2 12/7/2 11/8/2 16/9/2
f 13/10/2 16/9/2 11/8/2 5/4/2 6/3/2 15/6/2
f 11/8/3 12/7/3 9/11/3 7/12/3
f 7/12/4 9/11/4 3/13/4 1/14/4
f 5/15/5 11/8/5 7/12/5 1/16/5
f 6/17/6 3/18/6 9/11/6 32/19/6 27/20/6 28/21/6 26/22/6 18/23/6 19/24/6 17/25/6 20/26/6 25/27/6
f 9/11/6 12/7/6 6/17/6 25/27/6 21/28/6 24/29/6 23/30/6 22/31/6 31/32/6 29/33/6 30/34/6 32/19/6
f 15/35/3 4/2/3 2/1/3 13/36/3
f 16/37/1 8/12/1 10/11/1 14/38/1
f 8/12/2 2/14/2 4/13/2 10/11/2
f 13/39/6 2/16/6 8/12/6 16/37/6
f 33/40/5 4/18/5 15/41/5 14/38/5 10/11/5 39/42/5 46/43/5 47/44/5 48/45/5 44/46/5 45/47/5 43/48/5 37/49/5 36/50/5 34/51/5
f 39/42/5 10/11/5 4/18/5 33/40/5 35/52/5 42/53/5 38/54/5 40/55/5 41/56/5
f 44/57/7 23/58/7 24/59/7 45/60/7
f 48/61/8 22/62/8 23/58/8 44/57/8
f 31/63/9 22/62/9 48/61/9 47/64/9
f 29/65/10 31/63/10 47/64/10 46/66/10
f 30/67/11 29/65/11 46/66/11 39/68/11
f 32/69/12 30/67/12 39/68/12 41/70/12
f 27/71/13 32/69/13 41/70/13 40/72/13
f 28/73/14 27/71/14 40/72/14 38/74/14
f 26/75/15 28/73/15 38/74/15 42/76/15
f 18/77/16 26/75/16 42/76/16 35/78/16
f 33/79/17 19/80/17 18/77/17 35/78/17
f 34/81/18 17/82/18 19/80/18 33/79/18
f 36/83/19 20/84/19 17/82/19 34/81/19
f 37/85/20 25/86/20 20/84/20 36/83/20
f 43/87/21 21/88/21 25/86/21 37/85/21
f 45/89/22 24/90/22 21/88/22 43/87/22
